<?xml version="1.0" standalone="no"?>
<!DOCTYPE svg PUBLIC "-//W3C//DTD SVG 20010904//EN"
 "http://www.w3.org/TR/2001/REC-SVG-20010904/DTD/svg10.dtd">
<svg version="1.0" xmlns="http://www.w3.org/2000/svg"
 width="216.000000pt" height="216.000000pt" viewBox="0 0 216.000000 216.000000"
 preserveAspectRatio="xMidYMid meet">
<metadata>
Created by potrace 1.14, written by Peter Selinger 2001-2017
</metadata>
<g transform="translate(0.000000,216.000000) scale(0.100000,-0.100000)"
fill="#000000" stroke="none">
<path d="M445 2153 c-31 -8 -103 -52 -108 -68 -3 -7 -26 -23 -51 -34 -25 -11
-46 -25 -46 -30 0 -6 -6 -11 -14 -11 -8 0 -25 -17 -37 -37 -13 -21 -31 -45
-41 -55 -10 -10 -18 -27 -18 -37 0 -11 -14 -30 -30 -43 -26 -20 -32 -34 -40
-86 -5 -34 -16 -76 -24 -93 -14 -28 -16 -101 -16 -576 0 -298 4 -543 8 -543
16 0 32 -51 32 -100 0 -39 5 -55 23 -72 12 -13 32 -44 44 -70 12 -27 27 -48
32 -48 6 0 22 -18 36 -40 14 -22 32 -40 41 -40 8 0 22 -16 30 -35 8 -19 21
-35 30 -35 18 0 70 -27 99 -52 44 -37 120 -42 705 -44 l565 -3 68 23 c38 13
78 35 92 50 13 14 31 26 40 26 8 0 25 10 37 22 13 13 29 23 37 23 8 0 23 17
34 38 10 20 25 37 32 37 7 0 20 19 27 43 8 24 23 46 36 52 20 9 52 74 52 107
0 9 5 20 10 23 7 4 10 235 10 659 0 559 -2 655 -15 666 -7 6 -17 32 -21 57 -6
44 -18 61 -102 148 -16 17 -35 40 -41 53 -6 12 -18 22 -26 22 -8 0 -24 13 -36
30 -17 22 -33 31 -67 36 -25 4 -53 15 -63 25 -18 18 -47 19 -661 18 -354 -1
-652 -4 -663 -6z m944 -490 c41 -35 43 -39 38 -80 -6 -53 -28 -80 -73 -89 -70
-13 -134 33 -134 97 0 28 78 108 106 109 11 0 40 -17 63 -37z m-221 -154 c27
-13 47 -32 53 -48 6 -14 21 -37 33 -51 13 -14 29 -39 35 -57 19 -48 36 -57
118 -63 84 -6 101 -18 89 -63 -9 -38 -35 -47 -135 -50 -81 -2 -91 0 -114 21
-14 13 -28 35 -31 48 -8 31 -37 45 -75 38 -39 -8 -60 -33 -68 -76 -4 -30 -1
-38 21 -54 77 -54 70 -34 72 -225 1 -143 -1 -177 -14 -191 -20 -24 -47 -23
-72 2 -17 17 -20 33 -20 117 0 94 -1 100 -32 145 -22 32 -48 56 -78 70 -25 12
-65 41 -88 65 -56 55 -61 98 -16 143 16 17 45 48 64 71 75 85 180 177 204 179
5 0 29 -10 54 -21z m-380 -438 c18 -6 48 -23 67 -40 18 -16 42 -32 53 -35 10
-4 28 -29 41 -60 12 -29 33 -64 46 -76 36 -33 35 -103 -1 -156 -15 -21 -31
-52 -37 -69 -16 -46 -93 -115 -146 -131 -107 -32 -220 -8 -292 65 -120 120
-130 241 -34 385 22 34 117 105 154 116 37 12 110 12 149 1z m849 -24 c21 -15
57 -49 81 -76 37 -43 44 -61 58 -131 23 -125 8 -171 -92 -267 -56 -53 -72 -63
-122 -73 -31 -7 -65 -16 -75 -22 -26 -14 -132 41 -200 104 -52 48 -60 60 -78
128 -20 72 -20 78 -4 134 17 63 43 101 114 171 54 53 92 65 198 61 70 -2 87
-6 120 -29z"/>
<path d="M669 971 c-13 -10 -43 -28 -67 -40 -61 -31 -76 -71 -68 -176 5 -58
11 -83 22 -90 9 -5 35 -25 57 -44 39 -31 45 -33 105 -29 59 4 65 7 108 49 42
42 46 51 54 113 13 107 -4 144 -90 195 -78 46 -88 48 -121 22z"/>
<path d="M1416 952 c-37 -20 -53 -36 -64 -64 -8 -21 -19 -38 -23 -38 -5 0 -13
-18 -20 -39 -10 -34 -9 -44 12 -86 14 -28 46 -66 77 -91 71 -58 118 -60 181
-11 58 46 101 113 101 157 -1 56 -56 138 -115 171 -62 34 -87 34 -149 1z"/>
</g>
</svg>
